<svg xmlns:mydata="http://www.w3.org/2000/svg" mydata:template="InvertedHex1" mydata:presentation="2.5" mydata:layouttype="undefined" mydata:specialfontid="undefined" mydata:id1="158" mydata:id2="014" mydata:companyname="ECOS" mydata:companytagline="Visión, impacto, permanencia." version="1.1" xmlns="http://www.w3.org/2000/svg" xmlns:xlink="http://www.w3.org/1999/xlink" viewBox="78.19107634382834 164.86317375724695 393.6178473123432 140.2736524855061" class="watermark-logo"><g fill="#ef6079" fill-rule="nonzero" stroke="none" stroke-width="1" stroke-linecap="butt" stroke-linejoin="miter" stroke-miterlimit="10" stroke-dasharray="" stroke-dashoffset="0" font-family="none" font-weight="none" font-size="none" text-anchor="none" style="mix-blend-mode: normal"><g data-paper-data="{&quot;isGlobalGroup&quot;:true,&quot;bounds&quot;:{&quot;x&quot;:78.19107634382834,&quot;y&quot;:164.86317375724695,&quot;width&quot;:393.6178473123432,&quot;height&quot;:140.2736524855061}}"><g data-paper-data="{&quot;isSecondaryText&quot;:true}"><path d="M106.47427,291.32724l3.16436,7.61069c0,0.01082 0.02164,0.08384 0.06491,0.21907c0.04327,0.13523 0.07573,0.26234 0.09736,0.38135c0.02164,-0.119 0.05409,-0.24612 0.09736,-0.38135c0.04327,-0.13523 0.07032,-0.20825 0.08114,-0.21907l3.16436,-7.61069h1.96353c-0.04327,0.09736 -0.14605,0.34078 -0.30832,0.73024c-0.16227,0.38946 -0.36512,0.86817 -0.60853,1.43613c-0.24341,0.56796 -0.51387,1.20083 -0.81137,1.89862c-0.2975,0.69778 -0.60312,1.40638 -0.91685,2.1258c-0.31373,0.71942 -0.61935,1.43072 -0.91685,2.13391c-0.2975,0.70319 -0.56796,1.33877 -0.81137,1.90673c-0.24341,0.56796 -0.44896,1.04397 -0.61664,1.42802c-0.16768,0.38405 -0.27316,0.62476 -0.31644,0.72212c-0.04327,-0.09736 -0.14605,-0.33807 -0.30832,-0.72212c-0.16227,-0.38405 -0.36512,-0.86006 -0.60853,-1.42802c-0.24341,-0.56796 -0.51387,-1.20354 -0.81137,-1.90673c-0.2975,-0.70319 -0.60312,-1.4145 -0.91685,-2.13391c-0.31373,-0.71942 -0.61935,-1.42802 -0.91685,-2.1258c-0.2975,-0.69778 -0.56796,-1.33065 -0.81137,-1.89862c-0.24341,-0.56796 -0.44626,-1.04667 -0.60853,-1.43613c-0.16227,-0.38946 -0.26505,-0.63287 -0.30832,-0.73024z" data-paper-data="{&quot;glyphName&quot;:&quot;V&quot;,&quot;glyphIndex&quot;:0,&quot;firstGlyphOfWord&quot;:true,&quot;word&quot;:1}" style="fill: rgb(255, 255, 255);"></path><path d="M119.85113,291.32724h1.99598v11.82983h-1.99598z" data-paper-data="{&quot;glyphName&quot;:&quot;I&quot;,&quot;glyphIndex&quot;:1,&quot;word&quot;:1}" style="fill: rgb(255, 255, 255);"></path><path d="M134.93186,291.99257l-0.71401,1.62275c-0.45437,-0.16227 -0.90333,-0.29209 -1.34688,-0.38946c-0.44355,-0.09736 -0.85465,-0.14605 -1.23329,-0.14605c-0.65992,0 -1.1819,0.12982 -1.56595,0.38946c-0.38405,0.25964 -0.57608,0.5896 -0.57608,0.98988c0,0.34619 0.14334,0.62746 0.43003,0.84383c0.28669,0.21637 0.64639,0.4111 1.07913,0.58419c0.43273,0.17309 0.90063,0.34889 1.40368,0.52739c0.50305,0.1785 0.97094,0.40839 1.40368,0.68967c0.43273,0.28128 0.79244,0.63828 1.07913,1.07101c0.28669,0.43273 0.43003,0.98447 0.43003,1.6552c0,0.51928 -0.09466,0.98988 -0.28398,1.41179c-0.18932,0.42191 -0.4733,0.78433 -0.85194,1.08724c-0.37864,0.30291 -0.85735,0.53821 -1.43613,0.7059c-0.57878,0.16768 -1.25763,0.25153 -2.03655,0.25153c-0.47601,0 -0.90874,-0.03245 -1.2982,-0.09736c-0.38946,-0.06491 -0.73835,-0.14605 -1.04667,-0.24341c-0.30832,-0.09736 -0.58148,-0.20284 -0.81949,-0.31644c-0.238,-0.11359 -0.44355,-0.22448 -0.61664,-0.33266l0.86006,-1.73634c0.45437,0.24882 0.94119,0.44085 1.46047,0.57608c0.51928,0.13523 0.97906,0.20284 1.37934,0.20284c0.19473,0 0.44626,-0.02164 0.75458,-0.06491c0.30832,-0.04327 0.60853,-0.12441 0.90063,-0.24341c0.29209,-0.119 0.54362,-0.28128 0.75458,-0.48682c0.21096,-0.20555 0.31644,-0.4706 0.31644,-0.79515c0,-0.37864 -0.14334,-0.68967 -0.43003,-0.93308c-0.28669,-0.24341 -0.64639,-0.45978 -1.07913,-0.6491c-0.43273,-0.18932 -0.90063,-0.37594 -1.40368,-0.55985c-0.50305,-0.18391 -0.97094,-0.40298 -1.40368,-0.65721c-0.43273,-0.25423 -0.79244,-0.56796 -1.07913,-0.94119c-0.28669,-0.37323 -0.43003,-0.84653 -0.43003,-1.4199c0,-0.4111 0.08114,-0.81408 0.24341,-1.20895c0.16227,-0.39487 0.40839,-0.74917 0.73835,-1.0629c0.32996,-0.31373 0.74105,-0.56796 1.23329,-0.76269c0.49223,-0.19473 1.07372,-0.29209 1.74445,-0.29209c0.42191,0 0.83031,0.03516 1.22517,0.10548c0.39487,0.07032 0.74917,0.14875 1.0629,0.2353c0.31373,0.08655 0.57337,0.17039 0.77892,0.25153c0.20555,0.08114 0.32996,0.12712 0.37323,0.13793z" data-paper-data="{&quot;glyphName&quot;:&quot;S&quot;,&quot;glyphIndex&quot;:2,&quot;word&quot;:1}" style="fill: rgb(255, 255, 255);"></path><path d="M140.60066,291.32724h1.99598v11.82983h-1.99598z" data-paper-data="{&quot;glyphName&quot;:&quot;I&quot;,&quot;glyphIndex&quot;:3,&quot;word&quot;:1}" style="fill: rgb(255, 255, 255);"></path><path d="M147.92467,297.2665c0,-0.82219 0.15957,-1.60111 0.47871,-2.33676c0.31914,-0.73565 0.75187,-1.37934 1.2982,-1.93107c0.54633,-0.55173 1.18461,-0.98988 1.91484,-1.31443c0.73024,-0.32455 1.51186,-0.48682 2.34487,-0.48682c0.82219,0 1.60111,0.16227 2.33676,0.48682c0.73565,0.32455 1.37934,0.76269 1.93107,1.31443c0.55173,0.55173 0.98717,1.19542 1.30631,1.93107c0.31914,0.73565 0.47871,1.51456 0.47871,2.33676c0,0.83301 -0.15957,1.61463 -0.47871,2.34487c-0.31914,0.73024 -0.75458,1.36852 -1.30631,1.91484c-0.55173,0.54633 -1.19542,0.97635 -1.93107,1.29008c-0.73565,0.31373 -1.51456,0.4706 -2.33676,0.4706c-0.83301,0 -1.61463,-0.15687 -2.34487,-0.4706c-0.73024,-0.31373 -1.36852,-0.74376 -1.91484,-1.29008c-0.54633,-0.54633 -0.97906,-1.18461 -1.2982,-1.91484c-0.31914,-0.73024 -0.47871,-1.51186 -0.47871,-2.34487zM149.92065,297.2665c0,0.57337 0.10548,1.11158 0.31644,1.61463c0.21096,0.50305 0.50305,0.94119 0.87628,1.31443c0.37323,0.37323 0.80596,0.66803 1.2982,0.8844c0.49223,0.21637 1.02504,0.32455 1.59841,0.32455c0.55173,0 1.07372,-0.10818 1.56595,-0.32455c0.49223,-0.21637 0.91956,-0.51117 1.28197,-0.8844c0.36241,-0.37323 0.6491,-0.81137 0.86006,-1.31443c0.21096,-0.50305 0.31644,-1.04126 0.31644,-1.61463c0,-0.57337 -0.10818,-1.11158 -0.32455,-1.61463c-0.21637,-0.50305 -0.50846,-0.9439 -0.87628,-1.32254c-0.36782,-0.37864 -0.79785,-0.67614 -1.29008,-0.89251c-0.49223,-0.21637 -1.01963,-0.32455 -1.58218,-0.32455c-0.56255,0 -1.08995,0.10818 -1.58218,0.32455c-0.49223,0.21637 -0.91956,0.51387 -1.28197,0.89251c-0.36241,0.37864 -0.6491,0.81949 -0.86006,1.32254c-0.21096,0.50305 -0.31644,1.04126 -0.31644,1.61463zM153.02009,290.66191c0.24882,-0.357 0.49494,-0.71942 0.73835,-1.08724c0.24341,-0.36782 0.48953,-0.73565 0.73835,-1.10347h1.67143c-0.32455,0.36782 -0.65451,0.73565 -0.98988,1.10347c-0.33537,0.36782 -0.67074,0.73024 -1.0061,1.08724z" data-paper-data="{&quot;glyphName&quot;:&quot;Ó&quot;,&quot;glyphIndex&quot;:4,&quot;word&quot;:1}" style="fill: rgb(255, 255, 255);"></path><path d="M175.79266,291.32724v12.38157c-0.07573,-0.09736 -0.24341,-0.27587 -0.50305,-0.53551c-0.25964,-0.25964 -0.57878,-0.57067 -0.95742,-0.93308c-0.37864,-0.36241 -0.79785,-0.76269 -1.25763,-1.20083c-0.45978,-0.43814 -0.92767,-0.88169 -1.40368,-1.33065c-0.47601,-0.44896 -0.94119,-0.88981 -1.39556,-1.32254c-0.45437,-0.43273 -0.86817,-0.83031 -1.2414,-1.19272c-0.37323,-0.36241 -0.68696,-0.67074 -0.94119,-0.92497c-0.25423,-0.25423 -0.41921,-0.43003 -0.49494,-0.52739c-0.01082,-0.02164 -0.05409,-0.07843 -0.12982,-0.17039c-0.07573,-0.09196 -0.14064,-0.1758 -0.19473,-0.25153l0.04868,0.51928v7.31859h-1.97975v-12.36534c0.07573,0.09736 0.24341,0.27316 0.50305,0.52739c0.25964,0.25423 0.57878,0.55985 0.95742,0.91685c0.37864,0.357 0.79785,0.74646 1.25763,1.16838c0.45978,0.42191 0.92767,0.85194 1.40368,1.29008c0.47601,0.43814 0.94119,0.87087 1.39556,1.2982c0.45437,0.42732 0.87087,0.81678 1.24952,1.16838c0.37864,0.3516 0.69508,0.6518 0.94931,0.90063c0.25423,0.24882 0.41921,0.42191 0.49494,0.51928l0.30832,0.45437l-0.04868,-0.55173v-7.15632z" data-paper-data="{&quot;glyphName&quot;:&quot;N&quot;,&quot;glyphIndex&quot;:5,&quot;word&quot;:1}" style="fill: rgb(255, 255, 255);"></path><path d="M183.53858,301.72906l-1.42802,3.40777h-1.49293c0.21637,-0.57337 0.42732,-1.13863 0.63287,-1.69577c0.20555,-0.55714 0.41651,-1.12781 0.63287,-1.712z" data-paper-data="{&quot;glyphName&quot;:&quot;,&quot;,&quot;glyphIndex&quot;:6,&quot;lastGlyphOfWord&quot;:true,&quot;word&quot;:1}" style="fill: rgb(255, 255, 255);"></path><path d="M196.40156,291.32724h1.99598v11.82983h-1.99598z" data-paper-data="{&quot;glyphName&quot;:&quot;I&quot;,&quot;glyphIndex&quot;:7,&quot;firstGlyphOfWord&quot;:true,&quot;word&quot;:2}" style="fill: rgb(255, 255, 255);"></path><path d="M204.50448,290.80796c0.05409,0.07573 0.17309,0.24612 0.357,0.51117c0.18391,0.26505 0.4138,0.5896 0.68967,0.97365c0.27587,0.38405 0.58419,0.80867 0.92497,1.27386c0.34078,0.46519 0.68696,0.93849 1.03856,1.4199c0.3516,0.48142 0.69508,0.95201 1.03044,1.41179c0.33537,0.45978 0.63828,0.87899 0.90874,1.25763c0.27046,0.37864 0.50035,0.69508 0.68967,0.94931c0.18932,0.25423 0.30562,0.4138 0.34889,0.47871c0.02164,-0.03245 0.119,-0.17039 0.29209,-0.4138c0.17309,-0.24341 0.39216,-0.54903 0.65721,-0.91685c0.26505,-0.36782 0.56526,-0.78703 0.90063,-1.25763c0.33537,-0.4706 0.68155,-0.94931 1.03856,-1.43613c0.357,-0.48682 0.7059,-0.96824 1.04667,-1.44425c0.34078,-0.47601 0.65451,-0.90874 0.94119,-1.2982c0.28669,-0.38946 0.52739,-0.71942 0.72212,-0.98988c0.19473,-0.27046 0.31914,-0.44355 0.37323,-0.51928v12.34911h-2.1258v-6.03662c0,-0.08655 0.01082,-0.1785 0.03245,-0.27587c0.02164,-0.09736 0.03245,-0.15687 0.03245,-0.1785l-3.91082,5.63094c-0.05409,-0.06491 -0.18662,-0.24341 -0.39757,-0.53551c-0.21096,-0.29209 -0.46248,-0.63828 -0.75458,-1.03856c-0.29209,-0.40028 -0.60042,-0.83031 -0.92497,-1.29008c-0.32455,-0.45978 -0.63017,-0.8871 -0.91685,-1.28197c-0.28669,-0.39487 -0.5301,-0.73024 -0.73024,-1.0061c-0.20014,-0.27587 -0.31103,-0.43544 -0.33266,-0.47871c0,0.02164 0.01082,0.08114 0.03245,0.1785c0.02164,0.09736 0.03245,0.18932 0.03245,0.27587v6.03662h-1.99598z" data-paper-data="{&quot;glyphName&quot;:&quot;M&quot;,&quot;glyphIndex&quot;:8,&quot;word&quot;:2}" style="fill: rgb(255, 255, 255);"></path><path d="M224.55083,297.21782h1.59029c0.4111,0 0.75187,-0.07032 1.02233,-0.21096c0.27046,-0.14064 0.48682,-0.31644 0.6491,-0.52739c0.16227,-0.21096 0.27587,-0.43273 0.34078,-0.66533c0.06491,-0.23259 0.09736,-0.44085 0.09736,-0.62476c0,-0.17309 -0.02975,-0.37594 -0.08925,-0.60853c-0.0595,-0.23259 -0.16768,-0.45166 -0.32455,-0.65721c-0.15687,-0.20555 -0.37053,-0.37864 -0.64099,-0.51928c-0.27046,-0.14064 -0.61664,-0.21096 -1.03856,-0.21096h-1.60652zM222.57107,303.15707v-11.82983h3.34286c0.6491,0 1.2414,0.08655 1.77691,0.25964c0.53551,0.17309 0.98988,0.42191 1.36311,0.74646c0.37323,0.32455 0.66262,0.72483 0.86817,1.20083c0.20555,0.47601 0.30832,1.01151 0.30832,1.60652c0,0.47601 -0.07032,0.94931 -0.21096,1.4199c-0.14064,0.4706 -0.37053,0.89251 -0.68967,1.26574c-0.31914,0.37323 -0.73294,0.67614 -1.2414,0.90874c-0.50846,0.23259 -1.13592,0.34889 -1.88239,0.34889h-1.6552v4.0731z" data-paper-data="{&quot;glyphName&quot;:&quot;P&quot;,&quot;glyphIndex&quot;:9,&quot;word&quot;:2}" style="fill: rgb(255, 255, 255);"></path><path d="M241.67623,303.15707c-0.03245,-0.07573 -0.08925,-0.21096 -0.17039,-0.40569c-0.08114,-0.19473 -0.18121,-0.43273 -0.30021,-0.71401c-0.119,-0.28128 -0.24882,-0.5923 -0.38946,-0.93308c-0.14064,-0.34078 -0.28669,-0.69508 -0.43814,-1.0629h-4.0731l-1.2982,3.11568h-1.96353c0.04327,-0.09736 0.14605,-0.33807 0.30832,-0.72212c0.16227,-0.38405 0.36512,-0.86006 0.60853,-1.42802c0.24341,-0.56796 0.51387,-1.20083 0.81137,-1.89862c0.2975,-0.69778 0.60312,-1.40909 0.91685,-2.13391c0.31373,-0.72483 0.61935,-1.43613 0.91685,-2.13391c0.2975,-0.69778 0.56796,-1.33065 0.81137,-1.89862c0.24341,-0.56796 0.44626,-1.04397 0.60853,-1.42802c0.16227,-0.38405 0.26505,-0.62476 0.30832,-0.72212c0.04327,0.09736 0.14875,0.33807 0.31644,0.72212c0.16768,0.38405 0.37323,0.86006 0.61664,1.42802c0.24341,0.56796 0.51387,1.20083 0.81137,1.89862c0.2975,0.69778 0.60312,1.40909 0.91685,2.13391c0.31373,0.72483 0.61935,1.43613 0.91685,2.13391c0.2975,0.69778 0.56796,1.33065 0.81137,1.89862c0.24341,0.56796 0.44626,1.04397 0.60853,1.42802c0.16227,0.38405 0.26505,0.62476 0.30832,0.72212zM236.98649,298.36997h2.69376l-1.16838,-2.82358c-0.01082,-0.01082 -0.03786,-0.08384 -0.08114,-0.21907c-0.04327,-0.13523 -0.07573,-0.25694 -0.09736,-0.36512c-0.02164,0.10818 -0.05409,0.22989 -0.09736,0.36512c-0.04327,0.13523 -0.06491,0.20825 -0.06491,0.21907z" data-paper-data="{&quot;glyphName&quot;:&quot;A&quot;,&quot;glyphIndex&quot;:10,&quot;word&quot;:2}" style="fill: rgb(255, 255, 255);"></path><path d="M256.82187,302.28079c-0.12982,0.08655 -0.31103,0.18932 -0.54362,0.30832c-0.23259,0.119 -0.50846,0.22989 -0.8276,0.33266c-0.31914,0.10277 -0.67885,0.18932 -1.07913,0.25964c-0.40028,0.07032 -0.8276,0.10548 -1.28197,0.10548c-0.93038,0 -1.76339,-0.15957 -2.49903,-0.47871c-0.73565,-0.31914 -1.3577,-0.74917 -1.86616,-1.29008c-0.50846,-0.54092 -0.89792,-1.17379 -1.16838,-1.89862c-0.27046,-0.72483 -0.40569,-1.48752 -0.40569,-2.28807c0,-0.8871 0.16227,-1.70659 0.48682,-2.45846c0.32455,-0.75187 0.7654,-1.40097 1.32254,-1.9473c0.55714,-0.54633 1.20624,-0.97094 1.9473,-1.27386c0.74105,-0.30291 1.5335,-0.45437 2.37733,-0.45437c0.32455,0 0.6518,0.02434 0.98176,0.07302c0.32996,0.04868 0.64099,0.11089 0.93308,0.18662c0.29209,0.07573 0.54903,0.16227 0.77081,0.25964c0.22178,0.09736 0.38135,0.20014 0.47871,0.30832c-0.09736,0.15146 -0.17309,0.27587 -0.22718,0.37323c-0.05409,0.09736 -0.11089,0.19743 -0.17039,0.30021c-0.0595,0.10277 -0.12441,0.21907 -0.19473,0.34889c-0.07032,0.12982 -0.17039,0.30832 -0.30021,0.53551c-0.12982,-0.08655 -0.28669,-0.16227 -0.4706,-0.22718c-0.18391,-0.06491 -0.37594,-0.1163 -0.57608,-0.15416c-0.20014,-0.03786 -0.40298,-0.06761 -0.60853,-0.08925c-0.20555,-0.02164 -0.38946,-0.03245 -0.55173,-0.03245c-0.60583,0 -1.16567,0.11359 -1.67954,0.34078c-0.51387,0.22718 -0.95742,0.52739 -1.33065,0.90063c-0.37323,0.37323 -0.66533,0.80867 -0.87628,1.30631c-0.21096,0.49764 -0.31644,1.01151 -0.31644,1.54161c0,0.51928 0.10007,1.02504 0.30021,1.51727c0.20014,0.49223 0.48142,0.92767 0.84383,1.30631c0.36241,0.37864 0.79244,0.68426 1.29008,0.91685c0.49764,0.23259 1.04938,0.34889 1.6552,0.34889c0.34619,0 0.68155,-0.03516 1.0061,-0.10548c0.32455,-0.07032 0.61124,-0.14875 0.86006,-0.2353c0.24882,-0.08655 0.45166,-0.17309 0.60853,-0.25964c0.15687,-0.08655 0.24071,-0.14605 0.25153,-0.1785z" data-paper-data="{&quot;glyphName&quot;:&quot;C&quot;,&quot;glyphIndex&quot;:11,&quot;word&quot;:2}" style="fill: rgb(255, 255, 255);"></path><path d="M268.77071,291.32724v1.89862h-2.92095v9.93122h-1.99598v-9.93122h-2.85604v-1.89862z" data-paper-data="{&quot;glyphName&quot;:&quot;T&quot;,&quot;glyphIndex&quot;:12,&quot;word&quot;:2}" style="fill: rgb(255, 255, 255);"></path><path d="M273.15754,297.2665c0,-0.82219 0.15957,-1.60111 0.47871,-2.33676c0.31914,-0.73565 0.75187,-1.37934 1.2982,-1.93107c0.54633,-0.55173 1.18461,-0.98988 1.91484,-1.31443c0.73024,-0.32455 1.51186,-0.48682 2.34487,-0.48682c0.82219,0 1.60111,0.16227 2.33676,0.48682c0.73565,0.32455 1.37934,0.76269 1.93107,1.31443c0.55173,0.55173 0.98717,1.19542 1.30631,1.93107c0.31914,0.73565 0.47871,1.51456 0.47871,2.33676c0,0.83301 -0.15957,1.61463 -0.47871,2.34487c-0.31914,0.73024 -0.75458,1.36852 -1.30631,1.91484c-0.55173,0.54633 -1.19542,0.97635 -1.93107,1.29008c-0.73565,0.31373 -1.51456,0.4706 -2.33676,0.4706c-0.83301,0 -1.61463,-0.15687 -2.34487,-0.4706c-0.73024,-0.31373 -1.36852,-0.74376 -1.91484,-1.29008c-0.54633,-0.54633 -0.97906,-1.18461 -1.2982,-1.91484c-0.31914,-0.73024 -0.47871,-1.51186 -0.47871,-2.34487zM275.15352,297.2665c0,0.57337 0.10548,1.11158 0.31644,1.61463c0.21096,0.50305 0.50305,0.94119 0.87628,1.31443c0.37323,0.37323 0.80596,0.66803 1.2982,0.8844c0.49223,0.21637 1.02504,0.32455 1.59841,0.32455c0.55173,0 1.07372,-0.10818 1.56595,-0.32455c0.49223,-0.21637 0.91956,-0.51117 1.28197,-0.8844c0.36241,-0.37323 0.6491,-0.81137 0.86006,-1.31443c0.21096,-0.50305 0.31644,-1.04126 0.31644,-1.61463c0,-0.57337 -0.10818,-1.11158 -0.32455,-1.61463c-0.21637,-0.50305 -0.50846,-0.9439 -0.87628,-1.32254c-0.36782,-0.37864 -0.79785,-0.67614 -1.29008,-0.89251c-0.49223,-0.21637 -1.01963,-0.32455 -1.58218,-0.32455c-0.56255,0 -1.08995,0.10818 -1.58218,0.32455c-0.49223,0.21637 -0.91956,0.51387 -1.28197,0.89251c-0.36241,0.37864 -0.6491,0.81949 -0.86006,1.32254c-0.21096,0.50305 -0.31644,1.04126 -0.31644,1.61463z" data-paper-data="{&quot;glyphName&quot;:&quot;O&quot;,&quot;glyphIndex&quot;:13,&quot;word&quot;:2}" style="fill: rgb(255, 255, 255);"></path><path d="M291.74341,301.72906l-1.42802,3.40777h-1.49293c0.21637,-0.57337 0.42732,-1.13863 0.63287,-1.69577c0.20555,-0.55714 0.41651,-1.12781 0.63287,-1.712z" data-paper-data="{&quot;glyphName&quot;:&quot;,&quot;,&quot;glyphIndex&quot;:14,&quot;lastGlyphOfWord&quot;:true,&quot;word&quot;:2}" style="fill: rgb(255, 255, 255);"></path><path d="M306.58615,297.21782h1.59029c0.4111,0 0.75187,-0.07032 1.02233,-0.21096c0.27046,-0.14064 0.48682,-0.31644 0.6491,-0.52739c0.16227,-0.21096 0.27587,-0.43273 0.34078,-0.66533c0.06491,-0.23259 0.09736,-0.44085 0.09736,-0.62476c0,-0.17309 -0.02975,-0.37594 -0.08925,-0.60853c-0.0595,-0.23259 -0.16768,-0.45166 -0.32455,-0.65721c-0.15687,-0.20555 -0.37053,-0.37864 -0.64099,-0.51928c-0.27046,-0.14064 -0.61664,-0.21096 -1.03856,-0.21096h-1.60652zM304.60639,303.15707v-11.82983h3.34286c0.6491,0 1.2414,0.08655 1.77691,0.25964c0.53551,0.17309 0.98988,0.42191 1.36311,0.74646c0.37323,0.32455 0.66262,0.72483 0.86817,1.20083c0.20555,0.47601 0.30832,1.01151 0.30832,1.60652c0,0.47601 -0.07032,0.94931 -0.21096,1.4199c-0.14064,0.4706 -0.37053,0.89251 -0.68967,1.26574c-0.31914,0.37323 -0.73294,0.67614 -1.2414,0.90874c-0.50846,0.23259 -1.13592,0.34889 -1.88239,0.34889h-1.6552v4.0731z" data-paper-data="{&quot;glyphName&quot;:&quot;P&quot;,&quot;glyphIndex&quot;:15,&quot;firstGlyphOfWord&quot;:true,&quot;word&quot;:3}" style="fill: rgb(255, 255, 255);"></path><path d="M317.44774,303.15707v-11.82983h7.8541v1.80125h-5.87435v3.18059h5.22525v1.84993h-5.22525v3.14813h6.10153v1.84993z" data-paper-data="{&quot;glyphName&quot;:&quot;E&quot;,&quot;glyphIndex&quot;:16,&quot;word&quot;:3}" style="fill: rgb(255, 255, 255);"></path><path d="M330.87327,303.15707v-11.82983h3.34286c0.6491,0 1.2414,0.08655 1.77691,0.25964c0.53551,0.17309 0.98988,0.42191 1.36311,0.74646c0.37323,0.32455 0.66262,0.72483 0.86817,1.20083c0.20555,0.47601 0.30832,1.01151 0.30832,1.60652c0,0.32455 -0.03245,0.6491 -0.09736,0.97365c-0.06491,0.32455 -0.16768,0.63828 -0.30832,0.94119c-0.14064,0.30291 -0.32455,0.58148 -0.55173,0.83572c-0.22718,0.25423 -0.49764,0.4733 -0.81137,0.65721c0.238,0.37864 0.4706,0.74917 0.69778,1.11158c0.22718,0.36241 0.45707,0.72753 0.68967,1.09535c0.23259,0.36782 0.4733,0.74646 0.72212,1.13592c0.24882,0.38946 0.51928,0.81137 0.81137,1.26574h-2.38544c-0.48682,-0.75728 -0.9466,-1.474 -1.37934,-2.15014c-0.43273,-0.67614 -0.84924,-1.31713 -1.24952,-1.92296h-0.16227h-1.6552v4.0731zM332.85303,297.21782h1.59029c0.4111,0 0.75187,-0.07032 1.02233,-0.21096c0.27046,-0.14064 0.48682,-0.31103 0.6491,-0.51117c0.16227,-0.20014 0.27587,-0.41651 0.34078,-0.6491c0.06491,-0.23259 0.09736,-0.44626 0.09736,-0.64099c0,-0.18391 -0.02975,-0.39216 -0.08925,-0.62476c-0.0595,-0.23259 -0.16768,-0.45166 -0.32455,-0.65721c-0.15687,-0.20555 -0.37053,-0.37864 -0.64099,-0.51928c-0.27046,-0.14064 -0.61664,-0.21096 -1.03856,-0.21096h-1.60652z" data-paper-data="{&quot;glyphName&quot;:&quot;R&quot;,&quot;glyphIndex&quot;:17,&quot;word&quot;:3}" style="fill: rgb(255, 255, 255);"></path><path d="M344.57468,290.80796c0.05409,0.07573 0.17309,0.24612 0.357,0.51117c0.18391,0.26505 0.4138,0.5896 0.68967,0.97365c0.27587,0.38405 0.58419,0.80867 0.92497,1.27386c0.34078,0.46519 0.68696,0.93849 1.03856,1.4199c0.3516,0.48142 0.69508,0.95201 1.03044,1.41179c0.33537,0.45978 0.63828,0.87899 0.90874,1.25763c0.27046,0.37864 0.50035,0.69508 0.68967,0.94931c0.18932,0.25423 0.30562,0.4138 0.34889,0.47871c0.02164,-0.03245 0.119,-0.17039 0.29209,-0.4138c0.17309,-0.24341 0.39216,-0.54903 0.65721,-0.91685c0.26505,-0.36782 0.56526,-0.78703 0.90063,-1.25763c0.33537,-0.4706 0.68155,-0.94931 1.03856,-1.43613c0.357,-0.48682 0.7059,-0.96824 1.04667,-1.44425c0.34078,-0.47601 0.65451,-0.90874 0.94119,-1.2982c0.28669,-0.38946 0.52739,-0.71942 0.72212,-0.98988c0.19473,-0.27046 0.31914,-0.44355 0.37323,-0.51928v12.34911h-2.1258v-6.03662c0,-0.08655 0.01082,-0.1785 0.03245,-0.27587c0.02164,-0.09736 0.03245,-0.15687 0.03245,-0.1785l-3.91082,5.63094c-0.05409,-0.06491 -0.18662,-0.24341 -0.39757,-0.53551c-0.21096,-0.29209 -0.46248,-0.63828 -0.75458,-1.03856c-0.29209,-0.40028 -0.60042,-0.83031 -0.92497,-1.29008c-0.32455,-0.45978 -0.63017,-0.8871 -0.91685,-1.28197c-0.28669,-0.39487 -0.5301,-0.73024 -0.73024,-1.0061c-0.20014,-0.27587 -0.31103,-0.43544 -0.33266,-0.47871c0,0.02164 0.01082,0.08114 0.03245,0.1785c0.02164,0.09736 0.03245,0.18932 0.03245,0.27587v6.03662h-1.99598z" data-paper-data="{&quot;glyphName&quot;:&quot;M&quot;,&quot;glyphIndex&quot;:18,&quot;word&quot;:3}" style="fill: rgb(255, 255, 255);"></path><path d="M369.91118,303.15707c-0.03245,-0.07573 -0.08925,-0.21096 -0.17039,-0.40569c-0.08114,-0.19473 -0.18121,-0.43273 -0.30021,-0.71401c-0.119,-0.28128 -0.24882,-0.5923 -0.38946,-0.93308c-0.14064,-0.34078 -0.28669,-0.69508 -0.43814,-1.0629h-4.0731l-1.2982,3.11568h-1.96353c0.04327,-0.09736 0.14605,-0.33807 0.30832,-0.72212c0.16227,-0.38405 0.36512,-0.86006 0.60853,-1.42802c0.24341,-0.56796 0.51387,-1.20083 0.81137,-1.89862c0.2975,-0.69778 0.60312,-1.40909 0.91685,-2.13391c0.31373,-0.72483 0.61935,-1.43613 0.91685,-2.13391c0.2975,-0.69778 0.56796,-1.33065 0.81137,-1.89862c0.24341,-0.56796 0.44626,-1.04397 0.60853,-1.42802c0.16227,-0.38405 0.26505,-0.62476 0.30832,-0.72212c0.04327,0.09736 0.14875,0.33807 0.31644,0.72212c0.16768,0.38405 0.37323,0.86006 0.61664,1.42802c0.24341,0.56796 0.51387,1.20083 0.81137,1.89862c0.2975,0.69778 0.60312,1.40909 0.91685,2.13391c0.31373,0.72483 0.61935,1.43613 0.91685,2.13391c0.2975,0.69778 0.56796,1.33065 0.81137,1.89862c0.24341,0.56796 0.44626,1.04397 0.60853,1.42802c0.16227,0.38405 0.26505,0.62476 0.30832,0.72212zM365.22144,298.36997h2.69376l-1.16838,-2.82358c-0.01082,-0.01082 -0.03786,-0.08384 -0.08114,-0.21907c-0.04327,-0.13523 -0.07573,-0.25694 -0.09736,-0.36512c-0.02164,0.10818 -0.05409,0.22989 -0.09736,0.36512c-0.04327,0.13523 -0.06491,0.20825 -0.06491,0.21907z" data-paper-data="{&quot;glyphName&quot;:&quot;A&quot;,&quot;glyphIndex&quot;:19,&quot;word&quot;:3}" style="fill: rgb(255, 255, 255);"></path><path d="M387.06904,291.32724v12.38157c-0.07573,-0.09736 -0.24341,-0.27587 -0.50305,-0.53551c-0.25964,-0.25964 -0.57878,-0.57067 -0.95742,-0.93308c-0.37864,-0.36241 -0.79785,-0.76269 -1.25763,-1.20083c-0.45978,-0.43814 -0.92767,-0.88169 -1.40368,-1.33065c-0.47601,-0.44896 -0.94119,-0.88981 -1.39556,-1.32254c-0.45437,-0.43273 -0.86817,-0.83031 -1.2414,-1.19272c-0.37323,-0.36241 -0.68696,-0.67074 -0.94119,-0.92497c-0.25423,-0.25423 -0.41921,-0.43003 -0.49494,-0.52739c-0.01082,-0.02164 -0.05409,-0.07843 -0.12982,-0.17039c-0.07573,-0.09196 -0.14064,-0.1758 -0.19473,-0.25153l0.04868,0.51928v7.31859h-1.97975v-12.36534c0.07573,0.09736 0.24341,0.27316 0.50305,0.52739c0.25964,0.25423 0.57878,0.55985 0.95742,0.91685c0.37864,0.357 0.79785,0.74646 1.25763,1.16838c0.45978,0.42191 0.92767,0.85194 1.40368,1.29008c0.47601,0.43814 0.94119,0.87087 1.39556,1.2982c0.45437,0.42732 0.87087,0.81678 1.24952,1.16838c0.37864,0.3516 0.69508,0.6518 0.94931,0.90063c0.25423,0.24882 0.41921,0.42191 0.49494,0.51928l0.30832,0.45437l-0.04868,-0.55173v-7.15632z" data-paper-data="{&quot;glyphName&quot;:&quot;N&quot;,&quot;glyphIndex&quot;:20,&quot;word&quot;:3}" style="fill: rgb(255, 255, 255);"></path><path d="M393.17598,303.15707v-11.82983h7.8541v1.80125h-5.87435v3.18059h5.22525v1.84993h-5.22525v3.14813h6.10153v1.84993z" data-paper-data="{&quot;glyphName&quot;:&quot;E&quot;,&quot;glyphIndex&quot;:21,&quot;word&quot;:3}" style="fill: rgb(255, 255, 255);"></path><path d="M417.05201,291.32724v12.38157c-0.07573,-0.09736 -0.24341,-0.27587 -0.50305,-0.53551c-0.25964,-0.25964 -0.57878,-0.57067 -0.95742,-0.93308c-0.37864,-0.36241 -0.79785,-0.76269 -1.25763,-1.20083c-0.45978,-0.43814 -0.92767,-0.88169 -1.40368,-1.33065c-0.47601,-0.44896 -0.94119,-0.88981 -1.39556,-1.32254c-0.45437,-0.43273 -0.86817,-0.83031 -1.2414,-1.19272c-0.37323,-0.36241 -0.68696,-0.67074 -0.94119,-0.92497c-0.25423,-0.25423 -0.41921,-0.43003 -0.49494,-0.52739c-0.01082,-0.02164 -0.05409,-0.07843 -0.12982,-0.17039c-0.07573,-0.09196 -0.14064,-0.1758 -0.19473,-0.25153l0.04868,0.51928v7.31859h-1.97975v-12.36534c0.07573,0.09736 0.24341,0.27316 0.50305,0.52739c0.25964,0.25423 0.57878,0.55985 0.95742,0.91685c0.37864,0.357 0.79785,0.74646 1.25763,1.16838c0.45978,0.42191 0.92767,0.85194 1.40368,1.29008c0.47601,0.43814 0.94119,0.87087 1.39556,1.2982c0.45437,0.42732 0.87087,0.81678 1.24952,1.16838c0.37864,0.3516 0.69508,0.6518 0.94931,0.90063c0.25423,0.24882 0.41921,0.42191 0.49494,0.51928l0.30832,0.45437l-0.04868,-0.55173v-7.15632z" data-paper-data="{&quot;glyphName&quot;:&quot;N&quot;,&quot;glyphIndex&quot;:22,&quot;word&quot;:3}" style="fill: rgb(255, 255, 255);"></path><path d="M432.06784,302.28079c-0.12982,0.08655 -0.31103,0.18932 -0.54362,0.30832c-0.23259,0.119 -0.50846,0.22989 -0.8276,0.33266c-0.31914,0.10277 -0.67885,0.18932 -1.07913,0.25964c-0.40028,0.07032 -0.8276,0.10548 -1.28197,0.10548c-0.93038,0 -1.76339,-0.15957 -2.49903,-0.47871c-0.73565,-0.31914 -1.3577,-0.74917 -1.86616,-1.29008c-0.50846,-0.54092 -0.89792,-1.17379 -1.16838,-1.89862c-0.27046,-0.72483 -0.40569,-1.48752 -0.40569,-2.28807c0,-0.8871 0.16227,-1.70659 0.48682,-2.45846c0.32455,-0.75187 0.7654,-1.40097 1.32254,-1.9473c0.55714,-0.54633 1.20624,-0.97094 1.9473,-1.27386c0.74105,-0.30291 1.5335,-0.45437 2.37733,-0.45437c0.32455,0 0.6518,0.02434 0.98176,0.07302c0.32996,0.04868 0.64099,0.11089 0.93308,0.18662c0.29209,0.07573 0.54903,0.16227 0.77081,0.25964c0.22178,0.09736 0.38135,0.20014 0.47871,0.30832c-0.09736,0.15146 -0.17309,0.27587 -0.22718,0.37323c-0.05409,0.09736 -0.11089,0.19743 -0.17039,0.30021c-0.0595,0.10277 -0.12441,0.21907 -0.19473,0.34889c-0.07032,0.12982 -0.17039,0.30832 -0.30021,0.53551c-0.12982,-0.08655 -0.28669,-0.16227 -0.4706,-0.22718c-0.18391,-0.06491 -0.37594,-0.1163 -0.57608,-0.15416c-0.20014,-0.03786 -0.40298,-0.06761 -0.60853,-0.08925c-0.20555,-0.02164 -0.38946,-0.03245 -0.55173,-0.03245c-0.60583,0 -1.16567,0.11359 -1.67954,0.34078c-0.51387,0.22718 -0.95742,0.52739 -1.33065,0.90063c-0.37323,0.37323 -0.66533,0.80867 -0.87628,1.30631c-0.21096,0.49764 -0.31644,1.01151 -0.31644,1.54161c0,0.51928 0.10007,1.02504 0.30021,1.51727c0.20014,0.49223 0.48142,0.92767 0.84383,1.30631c0.36241,0.37864 0.79244,0.68426 1.29008,0.91685c0.49764,0.23259 1.04938,0.34889 1.6552,0.34889c0.34619,0 0.68155,-0.03516 1.0061,-0.10548c0.32455,-0.07032 0.61124,-0.14875 0.86006,-0.2353c0.24882,-0.08655 0.45166,-0.17309 0.60853,-0.25964c0.15687,-0.08655 0.24071,-0.14605 0.25153,-0.1785z" data-paper-data="{&quot;glyphName&quot;:&quot;C&quot;,&quot;glyphIndex&quot;:23,&quot;word&quot;:3}" style="fill: rgb(255, 255, 255);"></path><path d="M436.92527,291.32724h1.99598v11.82983h-1.99598z" data-paper-data="{&quot;glyphName&quot;:&quot;I&quot;,&quot;glyphIndex&quot;:24,&quot;word&quot;:3}" style="fill: rgb(255, 255, 255);"></path><path d="M452.2981,303.15707c-0.03245,-0.07573 -0.08925,-0.21096 -0.17039,-0.40569c-0.08114,-0.19473 -0.18121,-0.43273 -0.30021,-0.71401c-0.119,-0.28128 -0.24882,-0.5923 -0.38946,-0.93308c-0.14064,-0.34078 -0.28669,-0.69508 -0.43814,-1.0629h-4.0731l-1.2982,3.11568h-1.96353c0.04327,-0.09736 0.14605,-0.33807 0.30832,-0.72212c0.16227,-0.38405 0.36512,-0.86006 0.60853,-1.42802c0.24341,-0.56796 0.51387,-1.20083 0.81137,-1.89862c0.2975,-0.69778 0.60312,-1.40909 0.91685,-2.13391c0.31373,-0.72483 0.61935,-1.43613 0.91685,-2.13391c0.2975,-0.69778 0.56796,-1.33065 0.81137,-1.89862c0.24341,-0.56796 0.44626,-1.04397 0.60853,-1.42802c0.16227,-0.38405 0.26505,-0.62476 0.30832,-0.72212c0.04327,0.09736 0.14875,0.33807 0.31644,0.72212c0.16768,0.38405 0.37323,0.86006 0.61664,1.42802c0.24341,0.56796 0.51387,1.20083 0.81137,1.89862c0.2975,0.69778 0.60312,1.40909 0.91685,2.13391c0.31373,0.72483 0.61935,1.43613 0.91685,2.13391c0.2975,0.69778 0.56796,1.33065 0.81137,1.89862c0.24341,0.56796 0.44626,1.04397 0.60853,1.42802c0.16227,0.38405 0.26505,0.62476 0.30832,0.72212zM447.60836,298.36997h2.69376l-1.16838,-2.82358c-0.01082,-0.01082 -0.03786,-0.08384 -0.08114,-0.21907c-0.04327,-0.13523 -0.07573,-0.25694 -0.09736,-0.36512c-0.02164,0.10818 -0.05409,0.22989 -0.09736,0.36512c-0.04327,0.13523 -0.06491,0.20825 -0.06491,0.21907z" data-paper-data="{&quot;glyphName&quot;:&quot;A&quot;,&quot;glyphIndex&quot;:25,&quot;word&quot;:3}" style="fill: rgb(255, 255, 255);"></path><path d="M458.48618,302.15097c0,-0.28128 0.10548,-0.51928 0.31644,-0.71401c0.21096,-0.19473 0.44085,-0.29209 0.68967,-0.29209c0.22718,0 0.44626,0.09736 0.65721,0.29209c0.21096,0.19473 0.31644,0.43273 0.31644,0.71401c0,0.31373 -0.10548,0.55985 -0.31644,0.73835c-0.21096,0.1785 -0.43003,0.26775 -0.65721,0.26775c-0.24882,0 -0.47871,-0.08925 -0.68967,-0.26775c-0.21096,-0.1785 -0.31644,-0.42462 -0.31644,-0.73835z" data-paper-data="{&quot;glyphName&quot;:&quot;.&quot;,&quot;glyphIndex&quot;:26,&quot;lastGlyphOfWord&quot;:true,&quot;word&quot;:3}" style="fill: rgb(255, 255, 255);"></path></g><g data-paper-data="{&quot;isPrimaryText&quot;:true}"><path d="M184.77894,218.42221c-0.11054,2.87417 -1.18836,5.30616 -3.23344,7.29597c-2.04508,1.98981 -4.50471,3.03999 -7.37888,3.15053h-73.78876c0.44218,1.32654 1.05018,2.70835 1.82399,4.14544c0.55272,1.10545 1.10545,2.15563 1.65817,3.15053c0.55272,0.9949 1.10545,1.98981 1.65817,2.98471c-0.55272,-0.88436 -1.05018,-1.74108 -1.49236,-2.57017c-0.44218,-0.82909 -0.88436,-1.68581 -1.32654,-2.57017c1.76872,3.2058 4.03489,6.07997 6.79852,8.62251c2.76362,2.54253 5.85888,4.53234 9.28578,5.96943c3.64798,1.54763 7.68287,2.43199 12.10467,2.65308h0.66327c2.87417,0 5.27852,0.96727 7.21306,2.90181c1.93454,1.93454 2.90181,4.33889 2.90181,7.21306c0,2.87417 -0.96727,5.30616 -2.90181,7.29597c-1.93454,1.98981 -4.33889,2.98471 -7.21306,2.98471c-0.66327,0 -1.2989,0 -1.9069,0c-0.608,0 -1.18836,-0.05527 -1.74108,-0.16582c-4.64289,-0.33163 -9.17523,-1.27127 -13.59703,-2.8189c-4.4218,-1.54763 -8.5396,-3.56507 -12.3534,-6.05234c-3.8138,-2.48726 -7.26833,-5.44434 -10.36359,-8.87123c-3.09526,-3.42689 -5.69307,-7.24069 -7.79342,-11.4414c-4.09016,-8.29087 -5.94179,-17.05156 -5.55488,-26.28206c0.38691,-9.2305 3.01235,-17.7701 7.87633,-25.61879c0.44218,-0.66327 0.912,-1.35418 1.40945,-2.07272c0.49745,-0.71854 1.02254,-1.40945 1.57527,-2.07272c4.09016,-5.52725 9.06469,-10.03196 14.92357,-13.51412c5.85888,-3.48217 12.10467,-5.83125 18.73737,-7.04724c8.51196,-1.32654 16.91338,-0.66327 25.20425,1.98981c8.29087,2.65308 15.42102,7.07488 21.39045,13.2654c4.86398,4.97452 8.65014,10.61232 11.35849,16.91338c2.70835,6.30106 4.06253,12.93376 4.06253,19.89809v0.33163zM113.97489,190.56488c-3.2058,2.10035 -5.96943,4.67052 -8.29087,7.71051c-2.32144,3.03999 -4.09016,6.3287 -5.30616,9.86614h62.34736c-0.55272,-1.65817 -1.32654,-3.42689 -2.32144,-5.30616c-2.10035,-3.97962 -4.94689,-7.37888 -8.5396,-10.19777c-3.59271,-2.8189 -7.59997,-4.83634 -12.02176,-6.05234c-4.31125,-1.21599 -8.73305,-1.46472 -13.2654,-0.74618c-4.53234,0.71854 -8.73305,2.29381 -12.60213,4.7258z" data-paper-data="{&quot;glyphName&quot;:&quot;e&quot;,&quot;glyphIndex&quot;:0,&quot;firstGlyphOfWord&quot;:true,&quot;word&quot;:1}" style="fill: rgb(255, 255, 255);"></path><path d="M258.89933,251.08824c2.87417,0 5.30616,1.02254 7.29597,3.06762c1.98981,2.04508 2.98471,4.50471 2.98471,7.37888c0,2.87417 -0.9949,5.30616 -2.98471,7.29597c-1.98981,1.98981 -4.4218,2.98471 -7.29597,2.98471h-12.27049c-7.29597,0 -14.17739,-1.40945 -20.64427,-4.22834c-6.46688,-2.8189 -12.10467,-6.6327 -16.91338,-11.4414c-4.80871,-4.80871 -8.62251,-10.4465 -11.4414,-16.91338c-2.8189,-6.46688 -4.22834,-13.40358 -4.22834,-20.81009c0,-7.29597 1.40945,-14.17739 4.22834,-20.64427c2.8189,-6.46688 6.6327,-12.10467 11.4414,-16.91338c4.80871,-4.80871 10.4465,-8.62251 16.91338,-11.4414c6.46688,-2.8189 13.3483,-4.22834 20.64427,-4.22834h12.27049c2.87417,0 5.30616,0.9949 7.29597,2.98471c1.98981,1.98981 2.98471,4.4218 2.98471,7.29597c0,2.87417 -0.9949,5.33379 -2.98471,7.37888c-1.98981,2.04508 -4.4218,3.06762 -7.29597,3.06762h-12.27049c-4.53234,0 -8.76069,0.85672 -12.68503,2.57017c-3.92435,1.71345 -7.37888,4.03489 -10.36359,6.96433c-2.98471,2.92944 -5.33379,6.38397 -7.04724,10.36359c-1.71345,3.97962 -2.57017,8.18033 -2.57017,12.60213c0,4.53234 0.85672,8.78832 2.57017,12.76794c1.71345,3.97962 4.06253,7.43415 7.04724,10.36359c2.98471,2.92944 6.43924,5.25089 10.36359,6.96433c3.92435,1.71345 8.15269,2.57017 12.68503,2.57017z" data-paper-data="{&quot;glyphName&quot;:&quot;c&quot;,&quot;glyphIndex&quot;:1,&quot;word&quot;:1}" style="fill: rgb(255, 255, 255);"></path><path d="M319.75433,165.85808c8.51196,-1.43708 16.88574,-0.82909 25.12134,1.82399c8.2356,2.65308 15.39339,7.07488 21.47336,13.2654c4.97452,4.97452 8.81596,10.7505 11.52431,17.32792c2.70835,6.57743 4.00725,13.40358 3.89671,20.47845c0,5.63779 -0.912,11.1374 -2.73599,16.49884c-1.82399,5.36143 -4.39416,10.30832 -7.71051,14.84066c-5.4167,7.29597 -12.27049,12.85085 -20.56136,16.66465c-8.29087,3.8138 -16.91338,5.44434 -25.86752,4.89161c-4.64289,-0.33163 -9.17523,-1.27127 -13.59703,-2.8189c-4.4218,-1.54763 -8.5396,-3.59271 -12.3534,-6.13525c-3.8138,-2.54253 -7.26833,-5.52725 -10.36359,-8.95414c-3.09526,-3.42689 -5.69307,-7.24069 -7.79342,-11.4414c-1.98981,-4.09016 -3.45453,-8.34614 -4.39416,-12.76794c-0.93963,-4.4218 -1.2989,-8.87123 -1.07781,-13.3483c0.22109,-4.47707 0.96727,-8.89887 2.23854,-13.2654c1.27127,-4.36653 3.1229,-8.48433 5.55488,-12.3534c0.77381,-1.43708 1.71345,-2.87417 2.8189,-4.31125h0.16582c4.09016,-5.52725 9.06469,-10.00432 14.92357,-13.43121c5.85888,-3.42689 12.10467,-5.74834 18.73737,-6.96433zM355.5709,236.99376c2.32144,-3.42689 3.95198,-7.13015 4.89161,-11.10977c0.93963,-3.97962 1.13309,-8.01451 0.58036,-12.10467c-0.66327,-4.09016 -1.87926,-7.68287 -3.64798,-10.77813c-2.2109,-3.97962 -5.08507,-7.40651 -8.62251,-10.28068c-3.53744,-2.87417 -7.51706,-4.86398 -11.93886,-5.96943c-4.31125,-1.21599 -8.73305,-1.49236 -13.2654,-0.82909c-4.53234,0.66327 -8.73305,2.2109 -12.60213,4.64289c-4.97452,3.2058 -8.8436,7.46178 -11.60722,12.76794c-2.76362,5.30616 -3.97962,10.94395 -3.64798,16.91338c0.22109,4.64289 1.38181,8.95414 3.48217,12.93376c0.55272,0.9949 1.07781,2.01745 1.57527,3.06762c0.49745,1.05018 1.07781,2.07272 1.74108,3.06762c-0.9949,-1.65817 -1.93454,-3.37162 -2.8189,-5.14034c1.76872,3.2058 4.03489,6.05234 6.79852,8.5396c2.76362,2.48726 5.85888,4.50471 9.28578,6.05234c3.53744,1.54763 7.24069,2.40435 11.10977,2.57017c3.86907,0.16582 7.6276,-0.35927 11.27559,-1.57527c3.53744,-1.10545 6.79852,-2.76362 9.78323,-4.97452c2.98471,-2.2109 5.52725,-4.80871 7.6276,-7.79342z" data-paper-data="{&quot;glyphName&quot;:&quot;o&quot;,&quot;glyphIndex&quot;:2,&quot;word&quot;:1}" style="fill: rgb(255, 255, 255);"></path><path d="M471.80892,239.81266c0,4.31125 -0.82909,8.40142 -2.48726,12.27049c-1.65817,3.86907 -3.89671,7.24069 -6.71561,10.11486c-2.8189,2.87417 -6.16288,5.16798 -10.03196,6.88142c-3.86907,1.71345 -7.95924,2.57017 -12.27049,2.57017h-45.76561c-2.87417,0 -5.33379,-1.02254 -7.37888,-3.06762c-2.04508,-2.04508 -3.06762,-4.50471 -3.06762,-7.37888c0,-2.87417 1.02254,-5.33379 3.06762,-7.37888c2.04508,-2.04508 4.50471,-3.06762 7.37888,-3.06762h45.43398c2.98471,0 5.55488,-1.07781 7.71051,-3.23344c2.15563,-2.15563 3.23344,-4.7258 3.23344,-7.71051c0,-3.09526 -1.07781,-5.7207 -3.23344,-7.87633c-2.15563,-2.15563 -4.7258,-3.23344 -7.71051,-3.23344h-21.55627c-4.4218,0 -8.56723,-0.82909 -12.43631,-2.48726c-3.86907,-1.65817 -7.24069,-3.92435 -10.11486,-6.79852c-2.87417,-2.87417 -5.14034,-6.24579 -6.79852,-10.11486c-1.65817,-3.86907 -2.48726,-8.01451 -2.48726,-12.43631c0,-4.4218 0.82909,-8.56723 2.48726,-12.43631c1.65817,-3.86907 3.92435,-7.24069 6.79852,-10.11486c2.87417,-2.87417 6.21815,-5.16798 10.03196,-6.88142c3.8138,-1.71345 7.9316,-2.57017 12.3534,-2.57017h21.05881c2.87417,0 5.33379,1.02254 7.37888,3.06762c2.04508,2.04508 3.06762,4.50471 3.06762,7.37888c0,2.87417 -1.02254,5.33379 -3.06762,7.37888c-2.04508,2.04508 -4.50471,3.06762 -7.37888,3.06762h-21.05881c-2.98471,0.11054 -5.52725,1.21599 -7.6276,3.31635c-2.10035,2.10035 -3.15053,4.69816 -3.15053,7.79342c0,2.98471 1.05018,5.55488 3.15053,7.71051c2.10035,2.15563 4.69816,3.23344 7.79342,3.23344h21.55627c4.4218,0 8.56723,0.85672 12.43631,2.57017c3.86907,1.71345 7.24069,4.00725 10.11486,6.88142c2.87417,2.87417 5.14034,6.24579 6.79852,10.11486c1.65817,3.86907 2.48726,8.01451 2.48726,12.43631z" data-paper-data="{&quot;glyphName&quot;:&quot;s&quot;,&quot;glyphIndex&quot;:3,&quot;lastGlyphOfWord&quot;:true,&quot;word&quot;:1}" style="fill: rgb(255, 255, 255);"></path></g></g></g></svg>